<?xml version="1.0" encoding="UTF-8"?>
<svg id="_圖層_2" data-name="圖層 2" xmlns="http://www.w3.org/2000/svg" viewBox="0 0 143.42 123.68">
  <defs>
    <style>
      .cls-1 {
        fill: #fff;
        fill-rule: evenodd;
      }

      .cls-2 {
        fill: #152e58;
      }
    </style>
  </defs>
  <g id="_圖層_1-2" data-name="圖層 1">
    <rect class="cls-2" width="143.42" height="123.68" rx="12" ry="12"/>
    <path class="cls-1" d="M52.4,34.34c-6.73-7.87-13.31-15.62-17.23-21.46H13.96s-2.13-.02-1.12,2.01c2.84,15.68,14.64,69.57,18.1,82.48,1.12.22,2.23.45,3.35.67,10.73-14.75,21.46-29.5,32.19-44.26,1.47-2.16-6.16-10.19-14.08-19.45ZM105.74,12.88c-22.85,31.41-43.16,59.68-66.08,91.19.22.67-3.08,1.91-2.01,5.36,2.3,1.13,5.38,1.48,9.39,1.34,12.74-15.64,25.48-31.29,38.22-46.94.89,0,1.79-1.34,2.68-1.34,1.17-.45,2.98.89,2.01,3.35-.74,2.16-4.92,13.48-8.72,20.12,3.93,6.3,16.06,19.59,18.78,24.14,3.8.22,8.27-.22,12.07,0,1.57-6.24,3.67-19.22,6.03-29.5,4.24-22.57,8.5-45.15,12.74-67.72h-25.11Z"/>
  </g>
</svg>